<?xml version="1.0" standalone="no"?>
<!DOCTYPE svg PUBLIC "-//W3C//DTD SVG 20010904//EN"
 "http://www.w3.org/TR/2001/REC-SVG-20010904/DTD/svg10.dtd">
<svg version="1.0" xmlns="http://www.w3.org/2000/svg"
 width="700.000000pt" height="700.000000pt" viewBox="0 0 700.000000 700.000000"
 preserveAspectRatio="xMidYMid meet">
<metadata>
Created by potrace 1.11, written by Peter Selinger 2001-2013
</metadata>
<g transform="translate(0.000000,700.000000) scale(0.100000,-0.100000)"
fill="#000000" stroke="none">
<path d="M4895 6990 c-84 -21 -147 -69 -190 -143 -27 -47 -30 -61 -30 -137 0
-63 5 -95 19 -125 12 -25 147 -168 368 -390 191 -193 348 -353 348 -356 0 -3
-771 -5 -1712 -5 -942 -1 -1744 -4 -1782 -8 -86 -8 -230 -39 -310 -67 -103
-35 -296 -136 -391 -204 -162 -116 -346 -318 -431 -470 -6 -11 -20 -36 -31
-55 -34 -61 -94 -208 -114 -283 -50 -180 -53 -219 -53 -652 1 -361 1 -371 23
-418 85 -182 321 -231 462 -96 41 39 67 78 81 123 6 18 12 167 13 356 2 302 9
462 21 482 3 5 8 20 10 35 9 46 64 170 104 231 51 80 64 95 145 177 134 134
305 225 480 254 38 6 698 10 1778 10 l1719 1 -339 -338 c-186 -186 -350 -356
-365 -378 -35 -51 -52 -121 -45 -186 7 -70 27 -113 76 -169 85 -97 235 -120
352 -54 27 14 287 268 656 637 679 680 656 653 656 783 0 123 13 108 -645 767
-326 326 -611 607 -633 624 -22 17 -56 36 -75 43 -45 16 -126 21 -165 11z"/>
<path d="M6050 3487 c-99 -27 -179 -108 -205 -205 -8 -33 -12 -144 -11 -382
l2 -335 25 -55 c100 -216 388 -234 512 -32 41 67 44 94 42 452 -2 331 -3 347
-24 392 -60 131 -207 202 -341 165z"/>
<path d="M1969 2905 c-24 -7 -62 -23 -84 -37 -22 -14 -315 -302 -651 -640
-581 -582 -612 -616 -629 -668 -26 -77 -22 -162 9 -227 20 -41 145 -171 629
-654 332 -332 618 -614 635 -626 17 -13 37 -23 45 -23 7 0 18 -5 25 -12 7 -7
43 -12 90 -12 118 0 197 46 258 149 26 45 29 59 29 135 0 69 -5 93 -24 130
-15 30 -186 208 -518 542 l-496 496 470 471 c259 258 487 489 506 513 47 57
63 101 66 174 7 191 -173 336 -360 289z"/>
</g>
</svg>
